<svg width="187" height="25" viewBox="0 0 187 25" fill="none" xmlns="http://www.w3.org/2000/svg">
<g clip-path="url(#clip0_1_23)">
<path d="M10.8228 22.4434C9.64704 23.9791 7.92116 24.8577 6.09902 24.8577C-2.03529 24.8577 -2.03529 11.0293 6.09902 11.0293C7.2817 11.0293 8.38186 11.396 9.32387 12.0301V5.48264L13.4632 0.142273V17.9206C13.4632 20.9766 17.5888 20.9689 17.5888 17.9206V10.4945L21.7351 5.14647V17.9206C21.7351 21.0148 25.8744 20.9384 25.8744 17.9206L25.8607 10.4868L30 5.14647V17.9206C30 19.7618 29.3537 21.5114 28.1779 22.8102C25.8744 25.3696 22.0789 25.4994 19.6654 23.0546C17.1488 25.614 13.0438 25.339 10.8228 22.4434ZM6.09902 15.4834C3.1836 15.4834 3.1836 20.4112 6.09902 20.4112C9.01445 20.4112 9.01445 15.4834 6.09902 15.4834Z" fill="#111827"/>
</g>
<line x1="45.5" y1="5" x2="45.5" y2="20" stroke="#111827"/>
<path d="M63.756 8.624C64.636 8.624 65.408 8.796 66.072 9.14C66.744 9.484 67.26 9.976 67.62 10.616C67.988 11.248 68.172 11.984 68.172 12.824C68.172 13.664 67.988 14.4 67.62 15.032C67.26 15.656 66.744 16.14 66.072 16.484C65.408 16.828 64.636 17 63.756 17H60.828V8.624H63.756ZM63.696 15.572C64.576 15.572 65.256 15.332 65.736 14.852C66.216 14.372 66.456 13.696 66.456 12.824C66.456 11.952 66.216 11.272 65.736 10.784C65.256 10.288 64.576 10.04 63.696 10.04H62.508V15.572H63.696ZM74.5656 15.404H71.2296L70.6776 17H68.9136L71.9256 8.612H73.8816L76.8936 17H75.1176L74.5656 15.404ZM74.1096 14.06L72.8976 10.556L71.6856 14.06H74.1096ZM87.1514 8.624V17H85.4714V11.552L83.2274 17H81.9554L79.6994 11.552V17H78.0194V8.624H79.9274L82.5914 14.852L85.2554 8.624H87.1514ZM90.4924 8.624V17H88.8124V8.624H90.4924ZM97.2882 15.404H93.9522L93.4002 17H91.6362L94.6482 8.612H96.6042L99.6162 17H97.8402L97.2882 15.404ZM96.8322 14.06L95.6202 10.556L94.4082 14.06H96.8322ZM107.906 17H106.226L102.422 11.252V17H100.742V8.612H102.422L106.226 14.372V8.612H107.906V17ZM123.622 8.624L121.282 17H119.302L117.73 11.036L116.086 17L114.118 17.012L111.862 8.624H113.662L115.138 15.128L116.842 8.624H118.714L120.322 15.092L121.81 8.624H123.622ZM131.379 8.624L128.547 14.084V17H126.867V14.084L124.023 8.624H125.919L127.719 12.452L129.507 8.624H131.379ZM135.24 17.084C134.656 17.084 134.128 16.984 133.656 16.784C133.192 16.584 132.824 16.296 132.552 15.92C132.28 15.544 132.14 15.1 132.132 14.588H133.932C133.956 14.932 134.076 15.204 134.292 15.404C134.516 15.604 134.82 15.704 135.204 15.704C135.596 15.704 135.904 15.612 136.128 15.428C136.352 15.236 136.464 14.988 136.464 14.684C136.464 14.436 136.388 14.232 136.236 14.072C136.084 13.912 135.892 13.788 135.66 13.7C135.436 13.604 135.124 13.5 134.724 13.388C134.18 13.228 133.736 13.072 133.392 12.92C133.056 12.76 132.764 12.524 132.516 12.212C132.276 11.892 132.156 11.468 132.156 10.94C132.156 10.444 132.28 10.012 132.528 9.644C132.776 9.276 133.124 8.996 133.572 8.804C134.02 8.604 134.532 8.504 135.108 8.504C135.972 8.504 136.672 8.716 137.208 9.14C137.752 9.556 138.052 10.14 138.108 10.892H136.26C136.244 10.604 136.12 10.368 135.888 10.184C135.664 9.992 135.364 9.896 134.988 9.896C134.66 9.896 134.396 9.98 134.196 10.148C134.004 10.316 133.908 10.56 133.908 10.88C133.908 11.104 133.98 11.292 134.124 11.444C134.276 11.588 134.46 11.708 134.676 11.804C134.9 11.892 135.212 11.996 135.612 12.116C136.156 12.276 136.6 12.436 136.944 12.596C137.288 12.756 137.584 12.996 137.832 13.316C138.08 13.636 138.204 14.056 138.204 14.576C138.204 15.024 138.088 15.44 137.856 15.824C137.624 16.208 137.284 16.516 136.836 16.748C136.388 16.972 135.856 17.084 135.24 17.084ZM143.548 17.084C142.764 17.084 142.044 16.9 141.388 16.532C140.732 16.164 140.212 15.656 139.828 15.008C139.444 14.352 139.252 13.612 139.252 12.788C139.252 11.972 139.444 11.24 139.828 10.592C140.212 9.936 140.732 9.424 141.388 9.056C142.044 8.688 142.764 8.504 143.548 8.504C144.34 8.504 145.06 8.688 145.708 9.056C146.364 9.424 146.88 9.936 147.256 10.592C147.64 11.24 147.832 11.972 147.832 12.788C147.832 13.612 147.64 14.352 147.256 15.008C146.88 15.656 146.364 16.164 145.708 16.532C145.052 16.9 144.332 17.084 143.548 17.084ZM143.548 15.584C144.052 15.584 144.496 15.472 144.88 15.248C145.264 15.016 145.564 14.688 145.78 14.264C145.996 13.84 146.104 13.348 146.104 12.788C146.104 12.228 145.996 11.74 145.78 11.324C145.564 10.9 145.264 10.576 144.88 10.352C144.496 10.128 144.052 10.016 143.548 10.016C143.044 10.016 142.596 10.128 142.204 10.352C141.82 10.576 141.52 10.9 141.304 11.324C141.088 11.74 140.98 12.228 140.98 12.788C140.98 13.348 141.088 13.84 141.304 14.264C141.52 14.688 141.82 15.016 142.204 15.248C142.596 15.472 143.044 15.584 143.548 15.584ZM153.81 17L150.762 13.268V17H149.082V8.624H150.762V12.38L153.81 8.624H155.838L152.382 12.776L155.934 17H153.81ZM158.719 8.624V17H157.039V8.624H158.719ZM167.543 17H165.863L162.059 11.252V17H160.379V8.612H162.059L165.863 14.372V8.612H167.543V17ZM165.275 6.884L162.515 8.144V6.944L165.275 5.516V6.884ZM172.095 17.084C171.511 17.084 170.983 16.984 170.511 16.784C170.047 16.584 169.679 16.296 169.407 15.92C169.135 15.544 168.995 15.1 168.987 14.588H170.787C170.811 14.932 170.931 15.204 171.147 15.404C171.371 15.604 171.675 15.704 172.059 15.704C172.451 15.704 172.759 15.612 172.983 15.428C173.207 15.236 173.319 14.988 173.319 14.684C173.319 14.436 173.243 14.232 173.091 14.072C172.939 13.912 172.747 13.788 172.515 13.7C172.291 13.604 171.979 13.5 171.579 13.388C171.035 13.228 170.591 13.072 170.247 12.92C169.911 12.76 169.619 12.524 169.371 12.212C169.131 11.892 169.011 11.468 169.011 10.94C169.011 10.444 169.135 10.012 169.383 9.644C169.631 9.276 169.979 8.996 170.427 8.804C170.875 8.604 171.387 8.504 171.963 8.504C172.827 8.504 173.527 8.716 174.063 9.14C174.607 9.556 174.907 10.14 174.963 10.892H173.115C173.099 10.604 172.975 10.368 172.743 10.184C172.519 9.992 172.219 9.896 171.843 9.896C171.515 9.896 171.251 9.98 171.051 10.148C170.859 10.316 170.763 10.56 170.763 10.88C170.763 11.104 170.835 11.292 170.979 11.444C171.131 11.588 171.315 11.708 171.531 11.804C171.755 11.892 172.067 11.996 172.467 12.116C173.011 12.276 173.455 12.436 173.799 12.596C174.143 12.756 174.439 12.996 174.687 13.316C174.935 13.636 175.059 14.056 175.059 14.576C175.059 15.024 174.943 15.44 174.711 15.824C174.479 16.208 174.139 16.516 173.691 16.748C173.243 16.972 172.711 17.084 172.095 17.084ZM181.244 17L178.196 13.268V17H176.516V8.624H178.196V12.38L181.244 8.624H183.272L179.816 12.776L183.368 17H181.244ZM186.153 8.624V17H184.473V8.624H186.153Z" fill="#111827"/>
<defs>
<clipPath id="clip0_1_23">
<rect width="30" height="25" fill="white"/>
</clipPath>
</defs>
</svg>
