<svg width="32" height="32" viewBox="0 0 32 32" fill="none" xmlns="http://www.w3.org/2000/svg">
<circle cx="16" cy="16" r="16" fill="white"/>
<path d="M12.8552 21.4371C12.1105 22.4312 11.0175 23 9.86358 23C4.71214 23 4.71214 14.0479 9.86358 14.0479C10.6126 14.0479 11.3093 14.2853 11.9059 14.6958V10.4572L14.5273 7V18.5091C14.5273 20.4875 17.14 20.4825 17.14 18.5091V13.7017L19.7658 10.2396V18.5091C19.7658 20.5122 22.3873 20.4628 22.3873 18.5091L22.3786 13.6968L25 10.2396V18.5091C25 19.7011 24.5907 20.8337 23.846 21.6745C22.3873 23.3314 19.9836 23.4155 18.4551 21.8328C16.8613 23.4896 14.2617 23.3116 12.8552 21.4371ZM9.86358 16.9314C8.01725 16.9314 8.01725 20.1215 9.86358 20.1215C11.7099 20.1215 11.7099 16.9314 9.86358 16.9314Z" fill="#111827"/>
</svg>
